# xmcd
#
# Track frame offsets: 
#        150
#        21902
#        45417
#        71129
#        88839
#        107734
#        129831
#        152153
#        171288
#        195725
#
# Disc length: 2815 seconds
#
# Revision: 0
# Processed by: cddbd v1.5.2PL0 Copyright (c) Steve Scherf et al.
# Submitted via: ExactAudioCopy v1.0b3
#
DISCID=830afd0a
DTITLE=Corey Stevens - Albertville
DYEAR=2007
DGENRE=Blues
TTITLE0=A Real Good Sign
TTITLE1=That's What The Blues Is All About
TTITLE2=Another Pretty Face
TTITLE3=Blue Suede Shoes
TTITLE4=Breaking Up Somebody's Home
TTITLE5=Cold Women With Warm Hearts
TTITLE6=I Get Evil
TTITLE7=Little Brother (Make A Way)
TTITLE8=Got To Be Some Changes Made
TTITLE9=Nice To Be Nice (Ain't That Nice)
EXTD=
EXTT0=
EXTT1=
EXTT2=
EXTT3=
EXTT4=
EXTT5=
EXTT6=
EXTT7=
EXTT8=
EXTT9=
PLAYORDER=
